<?xml version="1.0" standalone="no"?><!DOCTYPE svg PUBLIC "-//W3C//DTD SVG 1.1//EN" "http://www.w3.org/Graphics/SVG/1.1/DTD/svg11.dtd"><svg t="1619228858347" class="icon" viewBox="0 0 1024 1024" version="1.1" xmlns="http://www.w3.org/2000/svg" p-id="1704" xmlns:xlink="http://www.w3.org/1999/xlink" width="200" height="200"><defs><style type="text/css"></style></defs><path d="M245.464 731.662C199.328 780.5 68.58 839.594 19.742 793.456c-48.838-46.136 2.726-180.032 48.864-228.87 46.136-48.838 123.13-51.028 171.968-4.892 48.838 46.136 51.028 123.13 4.89 171.968z" fill="#596675" p-id="1705"></path><path d="M240.574 559.694c-48.838-46.138-125.832-43.948-171.968 4.892-3.752 3.972-7.54 8.514-11.306 13.518 8.394 85.27 39.006 158.168 90.136 215 39.678-15.612 77.352-39.554 98.03-61.442 46.136-48.838 43.946-125.832-4.892-171.968z" opacity=".1" p-id="1706"></path><path d="M778.536 731.662c46.136 48.838 176.884 107.932 225.724 61.794 48.838-46.136-2.726-180.032-48.864-228.87-46.136-48.838-123.13-51.028-171.968-4.892-48.84 46.136-51.03 123.13-4.892 171.968z" fill="#596675" p-id="1707"></path><path d="M783.426 559.694c48.838-46.138 125.832-43.948 171.968 4.892 3.752 3.972 7.54 8.514 11.306 13.518-8.394 85.27-39.006 158.168-90.136 215-39.678-15.612-77.352-39.554-98.03-61.442-46.136-48.838-43.946-125.832 4.892-171.968z" opacity=".1" p-id="1708"></path><path d="M929.094 528.864c0-252.154-186.74-456.566-417.094-456.566S94.906 276.71 94.906 528.864 281.646 888.91 512 888.91s417.094-107.892 417.094-360.046z" fill="#596675" p-id="1709"></path><path d="M929.094 528.864c0-252.154-186.74-456.566-417.094-456.566S94.906 276.71 94.906 528.864 281.646 888.91 512 888.91s417.094-107.892 417.094-360.046z" opacity=".1" p-id="1710"></path><path d="M512 334.724c-150.84 0-273.12 132.8-273.12 296.616 0 96.148 42.136 181.596 107.434 235.796 50.79 14.704 106.806 21.774 165.686 21.774s114.896-7.068 165.686-21.774c65.298-54.2 107.434-139.646 107.434-235.796-0.002-163.816-122.28-296.616-273.12-296.616z" fill="#8090A0" p-id="1711"></path><path d="M512 674.274a14.948 14.948 0 0 1-10.606-4.394l-38.32-38.318a15 15 0 0 1 21.212-21.214L512 638.062l27.712-27.712a15 15 0 0 1 21.214 21.214l-38.32 38.318a14.954 14.954 0 0 1-10.606 4.392zM391.616 748.184a14.994 14.994 0 0 1-10.606-4.394l-38.32-38.32a15 15 0 0 1 21.212-21.214l27.712 27.714 27.712-27.714a15 15 0 0 1 21.212 21.214l-38.318 38.32a14.986 14.986 0 0 1-10.604 4.394zM632.384 748.184a14.994 14.994 0 0 1-10.606-4.394l-38.318-38.32a15 15 0 0 1 21.212-21.214l27.712 27.714 27.712-27.714a15 15 0 0 1 21.214 21.214l-38.32 38.32a14.99 14.99 0 0 1-10.606 4.394z" opacity=".1" p-id="1712"></path><path d="M452.372 76.962C250.268 108.636 94.906 298.874 94.906 528.864c0 252.154 186.74 360.046 417.094 360.046 17.63 0 35-0.64 52.054-1.92-436.432-40.262-260.416-668.712-111.682-810.028z" opacity=".1" p-id="1713"></path><path d="M941.694 57.83a474.124 474.124 0 0 1-237.78 63.936H320.084a474.124 474.124 0 0 1-237.78-63.936c-25.72-14.91-56.928 8.09-50.168 37.042 13.416 57.454 45.182 111.384 104.84 137.516-19.368 33.074-30.482 71.568-30.482 112.664 0 123.318 99.968 223.286 223.286 223.286 75.228 0 141.766-37.204 182.222-94.216 40.456 57.012 106.992 94.216 182.222 94.216 123.318 0 223.286-99.968 223.286-223.286 0-41.096-11.114-79.59-30.482-112.664 59.658-26.134 91.424-80.062 104.84-137.516 6.756-28.952-24.452-51.952-50.174-37.042z" fill="#596675" p-id="1714"></path><path d="M329.78 345.06m-141.16 0a141.16 141.16 0 1 0 282.32 0 141.16 141.16 0 1 0-282.32 0Z" fill="#FFFFFF" p-id="1715"></path><path d="M694.22 345.06m-141.16 0a141.16 141.16 0 1 0 282.32 0 141.16 141.16 0 1 0-282.32 0Z" fill="#FFFFFF" p-id="1716"></path><path d="M543.626 394.526l47.618 49.174a25.926 25.926 0 0 1 2.7 32.782l-70.9 102.524c-5.34 7.72-16.75 7.72-22.09 0l-70.9-102.524a25.926 25.926 0 0 1 2.7-32.782l47.618-49.174h63.254z" opacity=".1" p-id="1717"></path><path d="M480.374 394.526l-32.32 29.132a28.28 28.28 0 0 0-4.852 36.3l54.632 84.962c6.63 10.312 21.704 10.312 28.334 0l54.632-84.962a28.28 28.28 0 0 0-4.852-36.3l-32.32-29.132c-17.974-16.2-45.282-16.2-63.254 0z" fill="#FBDD56" p-id="1718"></path><path d="M509.372 382.494c-10.43 0.58-20.708 4.56-28.998 12.032l-32.32 29.132a28.276 28.276 0 0 0-4.852 36.298l54.632 84.962c4.088 6.356 11.38 8.78 17.928 7.3-18.198-31.978-14.982-136.662-6.39-169.724z" opacity=".1" p-id="1719"></path><path d="M391.432 970.848c-34.05 0-61.654-27.604-61.654-61.654v-40.57c0-34.05 27.604-61.654 61.654-61.654 34.05 0 61.654 27.604 61.654 61.654v40.57c0.002 34.05-27.602 61.654-61.654 61.654zM632.566 970.848c34.05 0 61.654-27.604 61.654-61.654v-40.57c0-34.05-27.604-61.654-61.654-61.654-34.05 0-61.654 27.604-61.654 61.654v40.57c0 34.05 27.604 61.654 61.654 61.654z" fill="#FBDD56" p-id="1720"></path><path d="M331.59 370.628a15 15 0 0 1-15-15v-30.45a15 15 0 0 1 30 0v30.45a15 15 0 0 1-15 15zM692.41 370.628a15 15 0 0 1-15-15v-30.45a15 15 0 0 1 30 0v30.45a15 15 0 0 1-15 15z" fill="#414B58" p-id="1721"></path></svg>