<?xml version="1.0" standalone="no"?><!DOCTYPE svg PUBLIC "-//W3C//DTD SVG 1.1//EN" "http://www.w3.org/Graphics/SVG/1.1/DTD/svg11.dtd"><svg t="1613913677472" class="icon" viewBox="0 0 1024 1024" version="1.1" xmlns="http://www.w3.org/2000/svg" p-id="10591" xmlns:xlink="http://www.w3.org/1999/xlink" width="200" height="200"><defs><style type="text/css"></style></defs><path d="M511.45926666 831.65065004L432.28045655 702.56987763H264.96211241c-49.82471465 0-90.37971497-40.55500031-90.37971495-90.37971498V282.72906495c0-49.82471465 40.55500031-90.37971497 90.37971495-90.37971496h494.15302278c49.82471465 0 90.37971497 40.55500031 90.37971496 90.37971496v329.38385009c0 49.82471465-40.55500031 90.37971497-90.37971496 90.37971497H596.50889589L511.45926666 831.65065004zM264.96211241 229.0419693c-29.58583833 0-53.68709568 24.10125733-53.68709564 53.68709563v329.38385011c0 29.66308594 24.10125733 53.76434329 53.68709564 53.76434325h187.78896336l59.78965756 97.40924836 64.19277192-97.40924836h182.3043823c29.58583833 0 53.68709568-24.10125733 53.68709568-53.76434325V282.72906495c0-29.58583833-24.10125733-53.68709568-53.68709568-53.68709568H264.96211241z" fill="#333333" p-id="10592"></path><path d="M342.13248443 452.5965805m-46.3485718 3e-8a46.34857177 46.34857177 0 1 0 92.69714358 0 46.34857177 46.34857177 0 1 0-92.69714358 0Z" fill="#333333" p-id="10593"></path><path d="M512 452.5965805m-46.34857177 3e-8a46.34857177 46.34857177 0 1 0 92.69714354 0 46.34857177 46.34857177 0 1 0-92.69714354 0Z" fill="#333333" p-id="10594"></path><path d="M681.86751557 452.5965805m-46.34857179 3e-8a46.34857177 46.34857177 0 1 0 92.69714359 0 46.34857177 46.34857177 0 1 0-92.69714358 0Z" fill="#333333" p-id="10595"></path></svg>