<?xml version="1.0" standalone="no"?><!DOCTYPE svg PUBLIC "-//W3C//DTD SVG 1.1//EN" "http://www.w3.org/Graphics/SVG/1.1/DTD/svg11.dtd"><svg t="1613910738906" class="icon" viewBox="0 0 1024 1024" version="1.1" xmlns="http://www.w3.org/2000/svg" p-id="5850" xmlns:xlink="http://www.w3.org/1999/xlink" width="200" height="200"><defs><style type="text/css"></style></defs><path d="M511.55128 734.909859L126.907876 958.258717V64.838727h769.32467v893.41999l-384.681266-223.348858z m3.514034-135.9933c-1.769296-10.470469-2.205225-24.429389-2.205225-47.090505v-28.366048h137.193639v35.323507c0 9.607822-3.078105 11.81407-15.777335 11.81407-14.007015 0-30.220279-1.780553-47.790446-4.846378 3.974521 9.595542 5.719258 14.867616 7.487531 27.493167 17.522072 1.344624 31.553647 1.780553 45.149293 1.780553 27.579125 0 36.788881-8.300037 36.788881-33.601282v-125.22198c0-22.707165 0.435928-36.242436 1.769296-46.700625-8.772804 1.721201-20.139689 2.157129-40.32645 2.15713h-110.875227c-17.133216 0-29.832446-0.436952-40.786938-1.732458 0.87288 11.329023 1.308809 17.908882 1.308808 37.974893v123.924428c0 23.51967-0.87288 35.759435-2.205225 47.090504h30.269398v0.001024zM340.574211 232.835929l-21.448498 8.300037c11.80179 26.64587 18.394952 48.869011 26.294876 86.832647l21.447474-9.172916c-7.875365-34.46086-15.727193-60.622706-26.293852-85.959768z m39.914058-32.257681c1.721201 11.765975 2.642177 24.865317 2.642177 47.088458v100.793614h-27.628244c-15.776312 0-24.137747-0.424672-31.577183-1.721201v27.057239c8.361435-1.333368 17.570167-1.769296 31.577183-1.769296h24.550139c-3.974521 16.601096-11.850909 41.46539-19.291369 59.799967-14.032598 34.461883-27.628244 58.030671-46.89403 81.162508 7.414877 7.402597 10.929934 12.626575 16.649192 24.004717 25.858948-37.541011 41.199331-72.002894 54.335513-124.798331-0.848321 18.296715-1.721201 56.260351-1.721201 68.499094v69.783343c0 22.708188-0.920976 36.243459-2.642177 48.435129h30.65723c-2.156106-11.330046-2.593058-25.303292-2.593058-48.435129V420.461167c18.806321 22.696931 30.65723 40.169885 44.229341 63.73765l18.418488-18.769482c-21.011546-29.712719-35.068703-47.136553-53.898561-65.895803-5.671163-5.671163-5.671163-5.671163-8.749268-8.735965v-18.770505h17.086144c12.698207 0 21.907962 0.435928 31.142278 1.769296v-27.056216c-7.488555 1.296529-17.571191 1.721201-31.142278 1.721201h-17.086144v-101.229542c0-21.787212 0.436952-35.758412 2.15713-46.65253h-30.221302v-0.001023z m61.799508 30.100552c-3.949962 34.462906-9.208732 58.45432-20.163225 88.11792l19.727296 8.300036c11.413957-30.960129 15.340383-45.354977 23.216771-88.11792l-22.780842-8.300036z m267.407306 109.529579c-11.850909 1.721201-23.701818 2.593058-43.865044 2.593058h-73.624834v-32.304754h49.560766c18.36937 0 26.707268 0.472767 40.714283 1.769297v-24.428366c-10.929934 1.296529-21.011546 1.732457-40.714283 1.732457h-49.560766v-30.5242h65.337077c18.370393 0 29.78435 0.424672 41.636283 2.157129v-26.597774c-12.286838 2.168386-21.932522 2.605338-42.556235 2.605337h-64.416102v-0.87288c0-15.692401 0.435928-23.131837 2.205225-34.898835h-30.269397c1.769296 12.202926 2.641153 19.631106 2.641153 34.898835v0.87288h-49.075719c-19.291368 0-29.857005-0.87288-41.222867-2.605337v26.597774c11.850909-1.732457 21.932522-2.157129 40.302915-2.157129h49.995671v30.5242H525.12339c-18.854417 0-29.348422-0.436952-39.865963-1.732457v24.865317c12.723789-1.732457 22.804379-2.205225 39.865963-2.205224h41.659819v32.304753h-55.666834c-21.472034 0-33.758871-0.87288-44.713364-2.593058v27.458375c12.287861-2.169409 23.653723-2.593058 44.713364-2.593058h154.714688c20.163225 0 31.142278 0.423649 43.865043 2.593058v-27.459398h-0.001023z m-59.641355 106.026802H512.860089V413.930427h137.193639v32.304754z m0 55.389517H512.860089V468.022393h137.193639v33.602305z" fill="#d81e06" p-id="5851"></path></svg>