<?xml version="1.0" standalone="no"?><!DOCTYPE svg PUBLIC "-//W3C//DTD SVG 1.1//EN" "http://www.w3.org/Graphics/SVG/1.1/DTD/svg11.dtd"><svg t="1613913664420" class="icon" viewBox="0 0 1024 1024" version="1.1" xmlns="http://www.w3.org/2000/svg" p-id="9840" xmlns:xlink="http://www.w3.org/1999/xlink" width="200" height="200"><defs><style type="text/css"></style></defs><path d="M512.11623163 354.89780679v22.14331319c0.27679147 0 0.78424234 0.23065942 1.01490177 0.4151872 0.13839574 0.27679147 0.23065942 0.5535829 0.36905515 0.78424234l37.7820279 76.76348532c3.13696936 6.36620239 9.08798491 10.79486495 16.05390227 12.04042651l84.42138093 14.76220867c0.27679147 0.04613205 0.59971457 0.0922637 0.87650605 0.13839573 0.13839574 0 0.36905515 0.18452777 0.41518717 0.32292312 0.0922637 0.41518719 0.23065942 0.87650602 0.36905516 1.29169322 0.0922637 0.27679147 0.36905515 1.10716583-0.41518681 2.02980391L592.61640088 542.51625346c-5.48969635 5.16677286-7.9808191 12.77853681-6.59686179 20.15964095L601.38146233 645.3442633v0.04613204c0.13839574 0.83037438-0.5535829 1.52235263-0.96876972 1.84527612-0.0922637 0.0922637-0.18452777 0.13839574-0.27679146 0.23065942-0.36905515-0.0922637-0.83037438-0.27679147-1.33782524-0.50745086l-76.76348535-38.38174287c-3.13696936-1.56848467-6.50459812-2.35272701-9.91835892-2.352727-3.36762878 0-6.73525753 0.78424234-9.82609523 2.30659534l-77.36319991 38.38174249c-0.23065942 0.0922637-0.41518719 0.23065942-0.64584662 0.32292348-0.04613205 0-0.23065942 0.0922637-0.50745084 0.09226371-0.27679147 0-0.50745087-0.04613205-0.55358293-0.09226371-0.50745087-0.41518719-0.92263806-1.24556119-0.96877009-1.66074835v-0.04613205L438.21292421 562.81429017c1.43008895-7.47336821-1.0610338-15.17739586-6.64299386-20.39030078L371.18327041 486.18920055c-0.5535829-0.6458466-0.83037438-1.89140816-0.78424233-2.62951845 0.23065942-0.50745087 0.46131884-0.73811032 0.55358254-0.83037401 0.04613205-0.04613205 0.13839574-0.0922637 0.41518719-0.13839573 0.41518719-0.04613205 0.83037438-0.0922637 1.1994295-0.18452778l84.42138131-15.36192323c6.9197853-1.24556119 12.82466886-5.72035577 15.91550617-11.99429484L510.64001067 378.37894524c0.50745087-0.96877011 1.29169322-1.29169322 1.43008894-1.29169322V354.89780679m0.04613203 1e-8c-8.85732512 0-17.11493569 5.30516859-21.26680679 13.56277952l-37.78202791 76.76348533-84.42138131 15.36192325c-9.45704008 1.19942953-16.51522112 7.65789562-19.46766268 16.5152211-2.35272701 8.25761056 0 18.3143652 6.50459812 24.81896333l60.80184713 56.74223971-15.9616382 82.66836888c-1.75301243 8.85732512 2.35272701 18.3143652 9.45704008 23.6195338 3.96734372 2.99857362 8.90345716 4.4747946 13.79343896 4.47479461 3.82894798 0 7.61176396-0.92263806 10.97939269-2.72178217l77.3631999-38.38174284 76.76348534 38.38174284c3.55215653 1.75301243 7.65789562 2.95244158 11.21005213 2.95244158 5.30516859 0 10.05675464-1.75301243 13.56277954-4.70545402 7.10431308-5.30516859 11.21005215-14.1624941 9.45703971-23.6195338l-15.36192326-82.66836888 60.80184713-57.29582264c6.50459812-6.50459812 8.85732512-15.96163819 5.90488355-24.81896332-2.35272701-8.85732512-10.05675464-15.36192363-18.91408015-16.5152211l-84.42138094-14.76220867-37.78202789-76.76348534c-3.50602449-8.25761056-12.36334962-13.60891118-21.22067516-13.60891118z" p-id="9841"></path></svg>