<?xml version="1.0" standalone="no"?><!DOCTYPE svg PUBLIC "-//W3C//DTD SVG 1.1//EN" "http://www.w3.org/Graphics/SVG/1.1/DTD/svg11.dtd"><svg t="1613913647674" class="icon" viewBox="0 0 1024 1024" version="1.1" xmlns="http://www.w3.org/2000/svg" p-id="8966" xmlns:xlink="http://www.w3.org/1999/xlink" width="200" height="200"><defs><style type="text/css"></style></defs><path d="M513.80615234 412.81982422c-50.96777344 0-92.28515625 41.31738281-92.28515625 92.27197265 0 50.96777344 41.31738281 92.29833984 92.28515625 92.29833985 50.95458984 0 92.28515625-41.33056641 92.28515625-92.29833985C606.09130859 454.12402344 564.76074219 412.81982422 513.80615234 412.81982422zM513.80615234 571.02294922c-36.41308594 0-65.91796875-29.51806641-65.91796875-65.93115235 0-36.39990234 29.50488281-65.90478516 65.91796875-65.90478515 36.39990234 0 65.91796875 29.50488281 65.91796875 65.90478515C579.72412109 541.49169922 550.19287109 571.02294922 513.80615234 571.02294922z" p-id="8967"></path><path d="M804.54394531 503.79980469c-4.03417969-3.83642578-8.17382813-7.88378906-12.47167969-12.06298828C740.24755859 441.28320312 661.89746094 365.02929687 512 365.02929687c-150.17431641 0-232.46630859 80.26171875-281.64111328 128.22363282-3.83642578 3.73095703-7.46191406 7.27734375-10.90283203 10.56005859l1.23925781 1.30517578L219.45605469 506.39697266c3.44091797 3.28271484 7.06640625 6.82910156 10.90283203 10.56005859 49.17480469 47.96191406 131.47998047 128.22363281 281.64111328 128.22363281 149.89746094 0 228.24755859-76.25390625 280.07226563-126.70751953 4.29785156-4.17919922 8.45068359-8.2265625 12.47167968-12.06298828l-1.23925781-1.30517578L804.54394531 503.79980469zM255.98779297 505.10498047c47.01269531-45.53613281 123.51708984-113.70849609 256.01220703-113.7084961 134.18261719 0 204.74121094 64.00634766 255.98583984 113.7084961-51.24462891 49.70214844-121.80322266 113.70849609-255.98583984 113.70849609C379.50488281 618.81347656 303.00048828 550.64111328 255.98779297 505.10498047z" p-id="8968"></path></svg>