<?xml version="1.0" standalone="no"?><!DOCTYPE svg PUBLIC "-//W3C//DTD SVG 1.1//EN" "http://www.w3.org/Graphics/SVG/1.1/DTD/svg11.dtd"><svg t="1613913628381" class="icon" viewBox="0 0 1024 1024" version="1.1" xmlns="http://www.w3.org/2000/svg" p-id="8209" xmlns:xlink="http://www.w3.org/1999/xlink" width="200" height="200"><defs><style type="text/css"></style></defs><path d="M720.59940352 462.29028423h-133.0905213c51.57148054-190.46450197-35.53285451-200.19162611-35.5328545-200.19162612-36.91724369 0-29.26431643 29.19032322-32.05338326 34.0583607 0 93.14552299-98.93370187 166.13087856-98.93370188 166.13087855v264.144439c0 26.0736574 35.53285451 35.46482849 49.47281812 35.46482849h199.9672596c18.81874206 0 34.144885-49.35407096 34.14488502-49.35407095 49.46983454-168.22178359 49.46983454-218.27341961 49.46983453-218.27341963 0.00059673-34.75711919-33.44373964-31.97879332-33.44373962-31.97879332v0 0ZM720.59940352 462.29028423Z" fill="#cdcdcd" p-id="8210"></path><path d="M366.36643538 462.37740527h-79.69367589c-16.4581198 0-16.71172559 16.16513055-16.7117256 16.16513055l16.45811982 266.40003862c0 16.95638057 16.9850231 16.95638057 16.9850231 16.95638058h68.97659415c14.36960165 0 14.24071025-11.21713267 14.24071023-11.21713268v-268.10367271c0-20.4597206-20.25564254-20.20134107-20.25564253-20.20134108v0 0ZM366.36643538 462.37740527Z" fill="#cdcdcd" p-id="8211"></path></svg>