<?xml version="1.0" standalone="no"?><!DOCTYPE svg PUBLIC "-//W3C//DTD SVG 1.1//EN" "http://www.w3.org/Graphics/SVG/1.1/DTD/svg11.dtd"><svg t="1613910765826" class="icon" viewBox="0 0 1024 1024" version="1.1" xmlns="http://www.w3.org/2000/svg" p-id="7367" xmlns:xlink="http://www.w3.org/1999/xlink" width="200" height="200"><defs><style type="text/css"></style></defs><path d="M105.107952 0v1024l406.828481-406.828481 406.828481 406.828481V0z m198.456018 153.895586h91.663543a295.586318 295.586318 0 0 0-24.663977-41.318517l35.088956-5.721026c7.628034 14.238997 15.192501 29.940034 22.820536 47.039543h88.99373v31.338507H303.56397z m-12.71339 362.713018a369.196846 369.196846 0 0 0 48.819418-113.975542l31.338507 6.356695a447.193494 447.193494 0 0 1-51.743498 125.608294z m138.130983-7.119499q0 40.301446-41.318517 40.301447h-25.426781l-7.119498-31.783475a120.777205 120.777205 0 0 0 21.358495 2.351977c12.331988 0 18.497982-6.356695 18.497983-19.070085V377.015581H306.424483v-31.338506h88.294494V292.407971H298.860016v-30.766404h54.60401a365.637097 365.637097 0 0 0-25.42678-53.650506L358.676516 197.057545a372.24806 372.24806 0 0 1 25.42678 64.584022h52.188466A592.126141 592.126141 0 0 0 461.082873 196.104041l30.512136 10.488547a425.898566 425.898566 0 0 1-24.663977 55.048979h53.650506V292.407971H428.917996v53.14197h83.59054v31.338506H428.917996zM447.415979 406.828481l28.54156-7.564467a647.429387 647.429387 0 0 1 33.181948 84.480477l-28.477993 10.933515A658.172202 658.172202 0 0 0 447.415979 406.828481z m284.90707-110.987895H681.02452v253.504997h-33.690483V295.840586H577.02899v56.511019q-3.686883 122.874915-54.540443 195.08697l-24.219008-25.42678Q540.541561 460.606121 543.719908 352.351605v-203.414241a405.302874 405.302874 0 0 0 155.230492-31.783475l17.09951 30.385002a457.237072 457.237072 0 0 1-139.148054 28.922963v86.578186h155.421193z" fill="#d81e06" p-id="7368"></path></svg>