<?xml version="1.0" standalone="no"?><!DOCTYPE svg PUBLIC "-//W3C//DTD SVG 1.1//EN" "http://www.w3.org/Graphics/SVG/1.1/DTD/svg11.dtd"><svg t="1613910752868" class="icon" viewBox="0 0 1024 1024" version="1.1" xmlns="http://www.w3.org/2000/svg" p-id="6602" xmlns:xlink="http://www.w3.org/1999/xlink" width="200" height="200"><defs><style type="text/css"></style></defs><path d="M175.104 0v1024l336.6912-226.0992L848.896 1024V0H175.104z" fill="#FF4E50" p-id="6603"></path><path d="M399.9744 333.4144a294.912 294.912 0 0 0-33.1776 0v-24.576a216.2688 216.2688 0 0 0 33.1776 2.048h65.1264a214.2208 214.2208 0 0 0 30.3104 0v24.1664a219.9552 219.9552 0 0 0-30.3104 0h-21.2992v245.76c0 23.3472-8.6016 30.72-35.2256 30.72a327.68 327.68 0 0 1-34.816 0 81.92 81.92 0 0 0-5.3248-24.1664 199.4752 199.4752 0 0 0 40.96 4.096c9.8304 0 13.1072-2.048 13.1072-9.0112v-245.76z m208.4864 78.6432a182.6816 182.6816 0 0 0-2.048 33.5872v35.2256a190.464 190.464 0 0 1-4.9152 56.5248 98.7136 98.7136 0 0 1-40.96 53.248 286.72 286.72 0 0 1-67.584 29.4912 59.392 59.392 0 0 0-16.7936-20.48 208.0768 208.0768 0 0 0 79.4624-33.5872 63.0784 63.0784 0 0 0 24.576-36.4544 201.1136 201.1136 0 0 0 4.5056-49.152v-35.2256a194.56 194.56 0 0 0-2.048-33.1776zM536.3712 321.536a260.096 260.096 0 0 0-34.816 0v-22.9376a183.0912 183.0912 0 0 0 35.2256 2.048H666.624a197.4272 197.4272 0 0 0 35.2256-2.048v24.576a231.0144 231.0144 0 0 0-34.4064 0h-63.488c-4.5056 13.1072-9.0112 26.624-17.2032 45.4656h95.4368a174.8992 174.8992 0 0 0 0 25.8048v109.3632a261.7344 261.7344 0 0 0 2.048 37.2736h-27.4432a261.7344 261.7344 0 0 0 2.048-37.2736V386.2528H531.456v117.9648a259.2768 259.2768 0 0 0 2.048 36.864H506.88a260.096 260.096 0 0 0 2.048-36.864V393.216a189.2352 189.2352 0 0 0 0-27.4432H564.224a230.1952 230.1952 0 0 0 16.7936-45.4656z m86.8352 219.9552a567.7056 567.7056 0 0 1 81.92 56.5248l-15.1552 21.2992a440.7296 440.7296 0 0 0-79.872-60.2112z" fill="#FFFFFF" p-id="6604"></path></svg>